<svg width="20" height="21" viewBox="0 0 20 21" fill="none" xmlns="http://www.w3.org/2000/svg">
<path d="M16 5H13.19C12.74 4.2 12.12 3.5 11.37 3L13 1.41L11.59 0L9.42 2.17C8.96 2.06 8.5 2 8 2C7.5 2 7.05 2.06 6.59 2.17L4.41 0L3 1.41L4.62 3C3.87 3.5 3.26 4.21 2.81 5H0V7H2.09C2.03 7.33 2 7.66 2 8V9H0V11H2V12C2 12.34 2.03 12.67 2.09 13H0V15H2.81C4.26 17.5 7.28 18.61 10 17.65V17C10 14.46 11.61 12.2 14 11.35V11H16V9H14V8C14 7.66 13.97 7.33 13.91 7H16V5ZM10 13H6V11H10V13ZM10 9H6V7H10V9ZM14.75 20.16L12 17.16L13.16 16L14.75 17.59L18.34 14L19.5 15.41L14.75 20.16Z" fill="white"/>
</svg>
