<svg xmlns="http://www.w3.org/2000/svg" version="1.1" xmlns:xlink="http://www.w3.org/1999/xlink" xmlns:svgjs="http://svgjs.com/svgjs" width="1435" height="560" preserveAspectRatio="none" viewBox="0 0 1435 560"><g mask="url(&quot;#SvgjsMask1019&quot;)" fill="none"><path d="M325.11 629.44C489.36 621.73 595.25 349.23 915.35 339.21 1235.44 329.19 1349.22 134.99 1505.58 132.01" stroke="rgba(51,121,194,0.58)" stroke-width="2"></path><path d="M678.66 565.03C793.78 530.27 751.19 203.79 994.57 202.3 1237.95 200.81 1464.6 341.46 1626.38 342.3" stroke="rgba(51,121,194,0.58)" stroke-width="2"></path><path d="M601.05 614.26C727.01 555.5 668.89 154.58 909.87 151.95 1150.86 149.32 1365.54 345.62 1527.52 347.95" stroke="rgba(51,121,194,0.58)" stroke-width="2"></path><path d="M681.84 655.75C769.74 647.76 736.15 473.15 978.87 464.93 1221.58 456.71 1416.55 271.44 1572.92 268.93" stroke="rgba(51,121,194,0.58)" stroke-width="2"></path><path d="M494.16 601.7C627.52 559.39 575.24 176.99 855.78 174.57 1136.33 172.15 1394.86 313.93 1579.03 314.57" stroke="rgba(51,121,194,0.58)" stroke-width="2"></path></g><defs><mask id="SvgjsMask1019"><rect width="1435" height="560" fill="#ffffff"></rect></mask></defs></svg>