<svg width="512" height="461" viewBox="0 0 512 461" fill="none" xmlns="http://www.w3.org/2000/svg">
<g opacity="0.988">
<path fill-rule="evenodd" clip-rule="evenodd" d="M0 225.978C0 211.311 0 196.645 0 181.978C7.71383 108.036 40.3805 47.8694 98 1.47765C114.782 -2.74115 122.282 3.75885 120.5 20.9776C119.5 22.6443 118.5 24.3109 117.5 25.9776C55.1372 76.9856 26.4705 142.986 31.5 223.978C38.3491 289.361 67.3491 342.361 118.5 382.978C124.538 399.754 118.704 407.92 101 407.478C52.6399 370.971 21.1399 323.138 6.5 263.978C3.76982 251.26 1.60316 238.593 0 225.978Z" fill="#808080"/>
<path fill-rule="evenodd" clip-rule="evenodd" d="M512 181.978C512 196.645 512 211.311 512 225.978C504.41 299.334 472.077 359.167 415 405.478C404.703 410.378 396.87 407.878 391.5 397.978C390.432 392.71 391.099 387.71 393.5 382.978C465.852 322.272 493.185 245.272 475.5 151.978C465.423 110.807 445.756 75.1406 416.5 44.9776C408.448 37.5877 400.448 30.2544 392.5 22.9776C388.529 13.176 391.029 5.67605 400 0.47765C404.787 -0.40085 409.453 -0.0675503 414 1.47765C471.619 47.8694 504.286 108.036 512 181.978Z" fill="#808080"/>
<path fill-rule="evenodd" clip-rule="evenodd" d="M153 61.9776C169.318 63.2673 174.484 71.6008 168.5 86.9777C121.168 126.299 103.168 176.299 114.5 236.978C122.944 270.394 140.611 297.727 167.5 318.978C172.167 326.311 172.167 333.645 167.5 340.978C160.125 346.106 152.625 346.272 145 341.478C87.7484 291.023 68.2484 228.523 86.5 153.978C96.6345 120.534 114.801 92.3667 141 69.4777C144.637 66.1715 148.637 63.6714 153 61.9776Z" fill="#808080"/>
<path fill-rule="evenodd" clip-rule="evenodd" d="M353 61.9776C356.41 61.9347 359.743 62.4348 363 63.4777C413.756 104.348 436.59 157.515 431.5 222.978C425.226 273.384 402.059 313.884 362 344.478C345.833 346.978 339 340.145 341.5 323.978C345.612 318.532 350.446 313.699 356 309.478C394.385 270.466 408.218 223.966 397.5 169.978C388.751 136.241 370.751 108.574 343.5 86.9777C337.835 75.0097 341.001 66.6765 353 61.9776Z" fill="#808080"/>
<path fill-rule="evenodd" clip-rule="evenodd" d="M244 128.978C281.499 125.638 308.666 140.638 325.5 173.978C338.767 213.842 328.267 245.675 294 269.478C287.009 273.197 279.676 276.031 272 277.978C271.167 335.642 270.667 393.308 270.5 450.978C265.348 459.953 257.848 462.453 248 458.478C245.027 456.713 242.86 454.213 241.5 450.978C241.333 393.308 240.833 335.642 240 277.978C202.488 267.472 182.821 242.806 181 203.978C181.784 171.57 196.784 148.403 226 134.478C232.031 132.31 238.031 130.477 244 128.978Z" fill="#808080"/>
</g>
</svg>
